# xmcd
#
# Track frame offsets:
#	150
#	21663
#	41808
#	61308
#	79351
#	96542
#	115006
#	133997
#	152378
#	173852
#	194011
#	213516
#	231573
#	248729
#	267192
#	286183
#
# Disc length: 4061 seconds
#
# Revision: 1
# Processed by: cddbd v1.5.2PL0 Copyright (c) Steve Scherf et al.
# Submitted via: audiograbber 1.83.01
#
DISCID=f40fdb10
DTITLE=Various Artist - BEST FEMALE COUNTRY HITS VOL. 3
DYEAR=1900
DGENRE=
TTITLE0=Dixie Chicks - Travelin' Soldier
TTITLE1=Sara Evans - Backseat of a Greyhound Bus
TTITLE2=Martina McBride - Concrete Angel
TTITLE3=Faith Hill - Cry
TTITLE4=Deana Carter - There's No Limit
TTITLE5=Wynona  - What the World Needs
TTITLE6=Martina McBride - This One's for the Girls
TTITLE7=Shania Twain - She's Not Just a Pretty Face
TTITLE8=Dixie Chicks - Tavelin' Soldier w/vocals
TTITLE9=Sara Evans - Backseat of a Greyhound Bus w/vocals
TTITLE10=Martina McBride - Concrete Angel w/vocals
TTITLE11=Faith Hill - Cry w/vocals
TTITLE12=Deana Carter - There's No Limit w/vocals
TTITLE13=Wynona  - What the World Needs w/vocals
TTITLE14=Martina McBride - This One's for the Girls w/vocals
TTITLE15=Shania Twain - She's Not Just a Pretty Face w/vocals
EXTD=
EXTT0=
EXTT1=
EXTT2=
EXTT3=
EXTT4=
EXTT5=
EXTT6=
EXTT7=
EXTT8=
EXTT9=
EXTT10=
EXTT11=
EXTT12=
EXTT13=
EXTT14=
EXTT15=
PLAYORDER=
